<svg xmlns="http://www.w3.org/2000/svg" version="1.1" xmlns:xlink="http://www.w3.org/1999/xlink" xmlns:svgjs="http://svgjs.dev/svgjs" width="1500" height="1500" viewBox="0 0 1500 1500"><rect width="1500" height="1500" fill="#ffffff"></rect><g transform="matrix(0.6666666666666666,0,0,0.6666666666666666,249.39393939393943,706.4907114611502)"><svg viewBox="0 0 396 35" data-background-color="#ffffff" preserveAspectRatio="xMidYMid meet" height="132" width="1500" xmlns="http://www.w3.org/2000/svg" xmlns:xlink="http://www.w3.org/1999/xlink"><g id="tight-bounds" transform="matrix(1,0,0,1,0.2400000000000091,-0.19516933113931145)"><svg viewBox="0 0 395.52 35.39033866227864" height="35.39033866227864" width="395.52"><g><svg viewBox="0 0 526.8110648336544 47.1380005954153" height="35.39033866227864" width="395.52"><g><rect width="4.229804517523549" height="47.1380005954153" x="115.98847362104307" y="0" fill="#ffffff" opacity="1" stroke-width="0" stroke="transparent" fill-opacity="1" class="rect-qz-0" data-fill-palette-color="primary" rx="1%" id="qz-0" data-palette-color="#152232"></rect></g><g transform="matrix(1,0,0,1,131.29106483365445,0.11725870794879256)"><svg viewBox="0 0 395.52 46.903483179517714" height="46.903483179517714" width="395.52"><g id="textblocktransform"><svg viewBox="0 0 395.52 46.903483179517714" height="46.903483179517714" width="395.52" id="textblock"><g><svg viewBox="0 0 395.52 46.903483179517714" height="46.903483179517714" width="395.52"><g transform="matrix(1,0,0,1,0,0)"><svg width="395.52" viewBox="-0.15972227777499998 -35.35 302.279722277775 35.85" height="46.903483179517714" data-palette-color="#152232"><path d="M12.4 0L6.65 0Q6.5 0 6.5-0.2L6.5-0.2 6.55-14.4-0.15-34.6Q-0.2-34.8 0-34.8L0-34.8 5.55-34.8Q5.8-34.8 5.85-34.6L5.85-34.6 9.55-21.15 13.3-34.6Q13.35-34.8 13.55-34.8L13.55-34.8 19.15-34.8Q19.35-34.8 19.3-34.6L19.3-34.6 12.55-14.6 12.6-0.2Q12.6 0 12.4 0L12.4 0ZM29.65 0.5L29.65 0.5Q26.95 0.5 24.72-0.88 22.5-2.25 21.15-4.53 19.8-6.8 19.8-9.55L19.8-9.55 19.85-25.4Q19.85-28.15 21.17-30.4 22.5-32.65 24.75-34 27-35.35 29.65-35.35L29.65-35.35Q32.35-35.35 34.55-34 36.75-32.65 38.07-30.4 39.4-28.15 39.4-25.4L39.4-25.4 39.45-9.55Q39.45-6.8 38.12-4.53 36.8-2.25 34.57-0.88 32.35 0.5 29.65 0.5ZM29.65-5.55L29.65-5.55Q31.15-5.55 32.27-6.78 33.4-8 33.4-9.55L33.4-9.55 33.35-25.4Q33.35-27.05 32.3-28.2 31.25-29.35 29.65-29.35L29.65-29.35Q28.1-29.35 27-28.23 25.9-27.1 25.9-25.4L25.9-25.4 25.9-9.55Q25.9-7.9 27-6.73 28.1-5.55 29.65-5.55ZM52.75 0.5L52.75 0.5Q50.09 0.5 47.84-0.88 45.59-2.25 44.27-4.55 42.95-6.85 42.95-9.6L42.95-9.6 43.05-34.6Q43.05-34.8 43.25-34.8L43.25-34.8 48.84-34.8Q49.05-34.8 49.05-34.6L49.05-34.6 49.05-9.6Q49.05-7.9 50.12-6.73 51.2-5.55 52.75-5.55L52.75-5.55Q54.34-5.55 55.42-6.73 56.5-7.9 56.5-9.6L56.5-9.6 56.5-34.6Q56.5-34.8 56.7-34.8L56.7-34.8 62.3-34.8Q62.5-34.8 62.5-34.6L62.5-34.6 62.59-9.6Q62.59-6.8 61.27-4.5 59.95-2.2 57.72-0.85 55.5 0.5 52.75 0.5ZM72.39 0L66.74 0Q66.54 0 66.54-0.25L66.54-0.25 66.64-34.6Q66.64-34.8 66.84-34.8L66.84-34.8 76.94-34.8Q79.64-34.8 81.92-33.48 84.19-32.15 85.54-29.93 86.89-27.7 86.89-24.9L86.89-24.9Q86.89-23.05 86.34-21.58 85.79-20.1 85.04-19.07 84.29-18.05 83.69-17.55L83.69-17.55Q86.39-14.55 86.39-10.5L86.39-10.5 86.44-0.25Q86.44 0 86.19 0L86.19 0 80.54 0Q80.34 0 80.34-0.15L80.34-0.15 80.34-10.5Q80.34-12.3 79.07-13.63 77.79-14.95 75.94-14.95L75.94-14.95 72.64-14.95 72.59-0.25Q72.59 0 72.39 0L72.39 0ZM72.64-28.8L72.64-20.95 76.94-20.95Q78.49-20.95 79.69-22.1 80.89-23.25 80.89-24.9L80.89-24.9Q80.89-26.5 79.72-27.65 78.54-28.8 76.94-28.8L76.94-28.8 72.64-28.8ZM108.69 0L103.04 0Q102.84 0 102.84-0.25L102.84-0.25 102.84-28.75 96.34-28.75Q96.09-28.75 96.09-29L96.09-29 96.14-34.6Q96.14-34.8 96.34-34.8L96.34-34.8 115.34-34.8Q115.59-34.8 115.59-34.6L115.59-34.6 115.59-29Q115.59-28.75 115.39-28.75L115.39-28.75 108.84-28.75 108.89-0.25Q108.89 0 108.69 0L108.69 0ZM134.39 0L118.24 0Q118.04 0 118.04-0.25L118.04-0.25 118.09-34.6Q118.09-34.8 118.29-34.8L118.29-34.8 134.34-34.8Q134.54-34.8 134.54-34.55L134.54-34.55 134.54-28.95Q134.54-28.75 134.34-28.75L134.34-28.75 124.09-28.75 124.09-20.95 134.34-20.95Q134.54-20.95 134.54-20.75L134.54-20.75 134.59-15.1Q134.59-14.9 134.39-14.9L134.39-14.9 124.09-14.9 124.09-6.15 134.39-6.15Q134.59-6.15 134.59-5.9L134.59-5.9 134.59-0.2Q134.59 0 134.39 0L134.39 0ZM136.83-0.25L136.83-0.25 143.03-34.6Q143.08-34.8 143.28-34.8L143.28-34.8 150.53-34.8Q150.73-34.8 150.78-34.6L150.78-34.6 156.73-0.25Q156.78 0 156.53 0L156.53 0 150.98 0Q150.78 0 150.73-0.25L150.73-0.25 150.18-3.9 143.38-3.9 142.83-0.25Q142.78 0 142.58 0L142.58 0 137.03 0Q136.83 0 136.83-0.25ZM146.63-23.3L144.38-9.25 149.18-9.25 147.13-23.3 146.83-25.15 146.63-23.3ZM165.73 0L160.08 0Q159.88 0 159.88-0.25L159.88-0.25 159.98-34.6Q159.98-34.8 160.18-34.8L160.18-34.8 166.28-34.8Q166.48-34.8 166.63-34.6L166.63-34.6 171.18-28 175.73-34.6Q175.88-34.8 176.08-34.8L176.08-34.8 182.23-34.8Q182.43-34.8 182.43-34.6L182.43-34.6 182.53-0.25Q182.53 0 182.33 0L182.33 0 176.68 0Q176.48 0 176.48-0.25L176.48-0.25 176.43-25.75 171.18-18.15 165.98-25.75 165.93-0.25Q165.93 0 165.73 0L165.73 0ZM203.28 0L194.33 0Q194.13 0 194.13-0.25L194.13-0.25 194.23-34.6Q194.23-34.8 194.43-34.8L194.43-34.8 204.03-34.8Q206.88-34.8 209.13-33.43 211.38-32.05 212.68-29.8 213.98-27.55 213.98-24.9L213.98-24.9Q213.98-22.75 213-20.9 212.03-19.05 210.68-17.9L210.68-17.9Q212.13-16.45 212.93-14.55 213.73-12.65 213.73-10.55L213.73-10.55Q213.73-7.65 212.33-5.25 210.93-2.85 208.55-1.43 206.18 0 203.28 0L203.28 0ZM200.23-28.85L200.23-21 204.03-21Q205.78-21 206.85-22.23 207.93-23.45 207.93-24.9L207.93-24.9Q207.93-26.5 206.78-27.68 205.63-28.85 204.03-28.85L204.03-28.85 200.23-28.85ZM200.23-14.95L200.18-6.1 203.28-6.1Q205.08-6.1 206.38-7.43 207.68-8.75 207.68-10.55L207.68-10.55Q207.68-12.35 206.38-13.65 205.08-14.95 203.28-14.95L203.28-14.95 200.23-14.95ZM226.57 0.5L226.57 0.5Q223.87 0.5 221.65-0.88 219.42-2.25 218.07-4.53 216.72-6.8 216.72-9.55L216.72-9.55 216.77-25.4Q216.77-28.15 218.1-30.4 219.42-32.65 221.67-34 223.92-35.35 226.57-35.35L226.57-35.35Q229.27-35.35 231.47-34 233.67-32.65 235-30.4 236.32-28.15 236.32-25.4L236.32-25.4 236.37-9.55Q236.37-6.8 235.05-4.53 233.72-2.25 231.5-0.88 229.27 0.5 226.57 0.5ZM226.57-5.55L226.57-5.55Q228.07-5.55 229.2-6.78 230.32-8 230.32-9.55L230.32-9.55 230.27-25.4Q230.27-27.05 229.22-28.2 228.17-29.35 226.57-29.35L226.57-29.35Q225.02-29.35 223.92-28.23 222.82-27.1 222.82-25.4L222.82-25.4 222.82-9.55Q222.82-7.9 223.92-6.73 225.02-5.55 226.57-5.55ZM249.42 0.5L249.42 0.5Q246.72 0.5 244.5-0.88 242.27-2.25 240.92-4.53 239.57-6.8 239.57-9.55L239.57-9.55 239.62-25.4Q239.62-28.15 240.95-30.4 242.27-32.65 244.52-34 246.77-35.35 249.42-35.35L249.42-35.35Q252.12-35.35 254.32-34 256.52-32.65 257.85-30.4 259.17-28.15 259.17-25.4L259.17-25.4 259.22-9.55Q259.22-6.8 257.9-4.53 256.57-2.25 254.35-0.88 252.12 0.5 249.42 0.5ZM249.42-5.55L249.42-5.55Q250.92-5.55 252.05-6.78 253.17-8 253.17-9.55L253.17-9.55 253.12-25.4Q253.12-27.05 252.07-28.2 251.02-29.35 249.42-29.35L249.42-29.35Q247.87-29.35 246.77-28.23 245.67-27.1 245.67-25.4L245.67-25.4 245.67-9.55Q245.67-7.9 246.77-6.73 247.87-5.55 249.42-5.55ZM271.52 0.5L271.52 0.5Q268.82 0.5 266.59-0.88 264.37-2.25 263.04-4.53 261.72-6.8 261.72-9.55L261.72-9.55 261.72-11.85Q261.72-12.1 261.97-12.1L261.97-12.1 267.57-12.1Q267.77-12.1 267.77-11.85L267.77-11.85 267.77-9.55Q267.77-7.9 268.87-6.73 269.97-5.55 271.52-5.55L271.52-5.55Q273.07-5.55 274.17-6.75 275.27-7.95 275.27-9.55L275.27-9.55Q275.27-11.4 272.87-12.75L272.87-12.75Q272.07-13.2 270.37-14.15 268.67-15.1 267.17-15.95L267.17-15.95Q264.42-17.55 263.09-19.98 261.77-22.4 261.77-25.45L261.77-25.45Q261.77-28.25 263.12-30.48 264.47-32.7 266.69-34 268.92-35.3 271.52-35.3L271.52-35.3Q274.17-35.3 276.39-33.98 278.62-32.65 279.94-30.43 281.27-28.2 281.27-25.45L281.27-25.45 281.27-21.35Q281.27-21.15 281.07-21.15L281.07-21.15 275.47-21.15Q275.27-21.15 275.27-21.35L275.27-21.35 275.22-25.45Q275.22-27.2 274.12-28.3 273.02-29.4 271.52-29.4L271.52-29.4Q269.97-29.4 268.87-28.23 267.77-27.05 267.77-25.45L267.77-25.45Q267.77-23.8 268.47-22.7 269.17-21.6 271.02-20.6L271.02-20.6Q271.27-20.45 271.99-20.08 272.72-19.7 273.57-19.23 274.42-18.75 275.09-18.4 275.77-18.05 275.92-17.95L275.92-17.95Q278.42-16.55 279.87-14.53 281.32-12.5 281.32-9.55L281.32-9.55Q281.32-6.7 279.99-4.42 278.67-2.15 276.44-0.83 274.22 0.5 271.52 0.5ZM295.22 0L289.57 0Q289.37 0 289.37-0.25L289.37-0.25 289.37-28.75 282.87-28.75Q282.62-28.75 282.62-29L282.62-29 282.67-34.6Q282.67-34.8 282.87-34.8L282.87-34.8 301.87-34.8Q302.12-34.8 302.12-34.6L302.12-34.6 302.12-29Q302.12-28.75 301.92-28.75L301.92-28.75 295.37-28.75 295.42-0.25Q295.42 0 295.22 0L295.22 0Z" opacity="1" transform="matrix(1,0,0,1,0,0)" fill="#000000" class="wordmark-text-0" data-fill-palette-color="primary" id="text-0"></path></svg></g></svg></g></svg></g></svg></g><g transform="matrix(1,0,0,1,0,0.11725870794879256)"><svg viewBox="0 0 104.91568692595524 46.903483179517714" height="46.903483179517714" width="104.91568692595524"><g><svg xmlns="http://www.w3.org/2000/svg" xmlns:xlink="http://www.w3.org/1999/xlink" version="1.0" x="0" y="0" viewBox="5 32.65300000000001 90.02058228862379 40.24449527900199" enable-background="new 0 0 100 100" xml:space="preserve" height="46.903483179517714" width="104.91568692595524" class="icon-icon-0" data-fill-palette-color="accent" id="icon-0"><g fill="#895ebd" data-fill-palette-color="accent"><path fill="#000000" d="M79.831 68.229c-1.856-2.528-4.197-4.547-6.745-6.347-1.355-0.954-2.818-1.743-4.122-2.777-1.387-1.101-2.801-2.17-4.228-3.216-3.878-2.849-7.881-5.52-11.81-8.298-1.639-1.16-2.377-2.861-2.487-4.833-0.047-0.854 0.358-1.18 1.245-1.098 0.8 0.075 1.592 0.199 2.359 0.443 1.374 0.439 2.775 0.727 4.225 0.736 0.71 0.004 1.387-0.165 1.971-0.547 1.36-0.883 2.504-2.001 3.421-3.343 0.021-0.028-0.018-0.097-0.042-0.201-0.955 0-1.923 0.015-2.89-0.008-0.341-0.008-0.562 0.118-0.789 0.354-0.628 0.655-1.415 1.052-2.281 1.284-1.757 0.468-3.396-0.014-5.188-0.659 1.573-0.155 3.113 0.316 4.447-1.005-1.141 0-2.099-0.036-3.055 0.009-0.949 0.046-1.727 0.779-2.732 0.698 1.096 0.722 2.148 1.433 3.104 2.31-0.525-0.064-1.012-0.284-1.512-0.312-0.753-0.044-1.198-0.495-1.646-0.99-0.11-0.125-0.206-0.26-0.315-0.385-0.95-1.081-1.79-2.261-2.91-3.186-0.203-0.167-0.373-0.441-0.757-0.253 1.011 1.257 1.712 2.691 2.523 4.06-0.036 0.048-0.072 0.096-0.107 0.142-0.983-0.067-1.759-0.45-2.381-1.14-0.142-0.158-0.278-0.333-0.405-0.525-0.428-0.644-0.781-1.35-1.252-1.938-0.657-0.823-1.261-1.68-1.884-2.524-0.212-0.287-0.483-0.44-0.8-0.555-0.984-0.359-1.974-0.706-2.949-1.087-1.347-0.528-2.72-0.375-4.094-0.192-0.948 0.126-1.432 0.768-1.328 1.838 0.08 0.827 0.145 1.668 0.015 2.488-0.135 0.854 0.009 1.665 0.254 2.453 0.449 1.447 0.96 2.875 1.461 4.307 0.567 1.62 1.179 3.238 2.154 4.649 2.021 2.925 4.33 5.624 7.04 7.932 3.181 2.712 6.453 5.316 9.66 7.999 1.868 1.564 3.724 3.151 5.282 5.041 0.695 0.841 1.312 1.719 1.176 2.914 0.264 0.02 0.482 0.049 0.701 0.051 1.773 0.026 3.547 0.05 5.32 0.069 0.797 0.009 0.841-0.057 0.737-0.854-0.044-0.335-0.169-0.638-0.313-0.938-0.276-0.578-0.651-1.089-1.051-1.588-1.42-1.766-3.211-3.131-4.963-4.527-3.829-3.054-7.713-6.038-11.554-9.077-1.454-1.148-2.969-2.231-4.256-3.577-1.34-1.402-2.589-2.883-3.822-4.382-0.966-1.173-1.628-2.455-2.069-3.916-0.446-1.478-0.25-2.844 0.287-4.205 0.361-0.912 1.044-1.201 1.994-0.916 0.792 0.24 1.582 0.491 2.363 0.762 0.798 0.277 1.584 0.589 2.376 0.885-0.238 0.11-0.452 0.109-0.667 0.11-1.404 0.009-1.683 0.248-2.115 1.583-0.216 0.667-0.066 1.253 0.205 1.836 0.222 0.478 0.473 0.94 0.736 1.393 1.135 1.954 2.487 3.759 4.263 5.153 5.768 4.527 11.819 8.676 17.646 13.125 1.673 1.278 3.352 2.546 4.804 4.082 1.371 1.45 2.688 2.941 2.78 5.204 2.048 0 4.042 0 6.034 0.001 0.771 0 0.81-0.046 0.684-0.8C81.346 70.542 80.65 69.349 79.831 68.229z" data-fill-palette-color="accent"></path><path fill="#000000" d="M27.882 67.337c-0.868-1.695-1.802-3.356-2.637-5.066-1.553-3.185-2.857-6.423-3.188-10.032-0.317-3.458 0.062-6.784 1.013-10.085 0.265-0.919 0.608-1.811 0.965-2.693-0.429-0.228-0.681 0.027-0.957 0.199-1.291 0.807-2.471 1.781-3.762 2.578-1.325 0.819-2.383 1.859-3.213 3.156-0.5 0.779-1.196 1.421-1.587 2.276 0.328 0.019 0.531-0.187 0.731-0.382 0.026-0.025 0.052-0.049 0.079-0.075 0.002-0.002 0.005-0.003 0.007-0.006 0.032-0.029 0.065-0.056 0.097-0.084 1.523-1.199 2.894-2.573 4.359-3.837 0.212-0.183 0.391-0.445 0.702-0.469 0.167 0.312-0.071 0.403-0.195 0.516-1.853 1.672-3.472 3.564-5.132 5.42-1.143 1.279-2.292 2.567-3.66 3.609-1.002 0.764-1.843 1.638-2.572 2.66-1.256 1.759-2.572 3.477-3.879 5.234 0.116 0.021 0.185 0.057 0.217 0.035 0.186-0.119 0.364-0.25 0.541-0.382 2.885-2.15 5.309-4.757 7.506-7.586 1.034-1.33 2.057-2.668 3.085-4.002 0.05 0.08 0.1 0.16 0.15 0.24-0.786 1.263-1.571 2.529-2.358 3.791-2.244 3.599-4.719 7.019-7.659 10.093C6.036 62.964 5.52 63.464 5 63.96v4.642c0.294-0.461 0.581-0.926 0.939-1.339 1.563-1.798 3.013-3.681 4.261-5.712 2.3-3.738 4.321-7.63 6.284-11.551 0.727-1.454 1.519-2.869 2.468-4.192 0.056 0.04 0.112 0.079 0.168 0.119-0.278 0.572-0.585 1.132-0.827 1.717-1.367 3.314-2.791 6.604-3.949 10.002-0.633 1.855-1.348 3.68-2.182 5.453-0.227 0.485-0.367 0.979-0.442 1.5-0.064 0.438-0.121 0.876-0.191 1.313-0.36 2.238-1.165 4.258-2.872 5.833-0.028 0.025-0.009 0.103-0.016 0.232 2.052 0 4.098-0.01 6.145 0.01 0.356 0.002 0.558-0.168 0.76-0.409 0.832-0.998 1.198-2.165 1.267-3.441 0.078-1.416-0.065-2.823-0.238-4.225-0.223-1.812-0.434-3.588 0.042-5.423 0.566-2.189 0.693-4.478 1.371-6.65 0.729-2.342 1.339-4.728 2.342-6.978 0.444-0.995 0.936-1.968 1.597-2.872 0.226 0.371-0.021 0.637-0.126 0.898-0.944 2.313-1.51 4.731-1.947 7.179-0.44 2.467-0.319 4.971-0.379 7.461-0.005 0.164 0.025 0.333 0.065 0.492 0.294 1.18 0.582 2.36 0.897 3.534 0.538 1.998 1.313 3.925 1.798 5.938 0.369 1.529 0.609 3.061-0.488 4.437-0.016 0.021 0.029 0.089 0.064 0.188 1.921 0 3.86-0.002 5.798 0 0.842 0 0.985-0.112 1.191-0.912 0.091-0.354 0.11-0.703 0.061-1.068C28.726 69.135 28.336 68.221 27.882 67.337z" data-fill-palette-color="accent"></path><path fill="#000000" d="M14.505 47.684c0.001 0 0.002 0 0.004-0.002 0.002-0.004 0.005-0.008 0.006-0.013-0.008-0.001-0.016-0.001-0.024-0.001C14.497 47.674 14.5 47.68 14.505 47.684z" data-fill-palette-color="accent"></path><path fill="#ffffff" d="M14.489 47.78c0.012-0.003 0.021-0.008 0.027-0.015 0.004-0.005 0.005-0.011 0.006-0.016 0.001-0.002 0.003-0.004 0.004-0.008 0-0.008 0-0.015-0.004-0.024 0-0.001 0-0.001 0-0.002-0.003-0.01-0.009-0.02-0.017-0.031-0.037 0.019-0.074 0.039-0.111 0.059C14.426 47.757 14.463 47.789 14.489 47.78z" data-fill-palette-color="accent"></path><path fill="#000000" d="M94.996 72.358c-0.134-0.822-0.309-1.646-0.669-2.385-0.715-1.457-0.714-2.984-0.605-4.536 0.098-1.437 0.137-2.876 0.106-4.316-0.011-0.475-0.161-0.83-0.455-1.193-1.201-1.482-2.36-2.999-3.562-4.482-0.549-0.676-1.029-1.415-1.674-2.03-0.17 0.218-0.098 0.416-0.115 0.597-0.113 1.188-0.621 1.615-1.799 1.517-0.701-0.059-1.341-0.321-1.963-0.614-1.42-0.674-2.814-1.403-4.243-2.053-2.938-1.337-5.987-2.395-9.04-3.432-1.293-0.439-2.254-1.133-2.639-2.489-0.081-0.28-0.242-0.483-0.496-0.633-0.201-0.118-0.448-0.202-0.509-0.342 1.134-2.403 2.229-4.722 3.376-7.15-1.094 0-2.034 0.027-2.971-0.011-0.449-0.02-0.688 0.126-0.904 0.52-0.892 1.617-1.821 3.212-2.735 4.815-0.429 0.754-0.427 0.756-1.248 0.6-0.733-0.14-1.468-0.263-2.195-0.432-0.467-0.11-0.931-0.108-1.401-0.118-0.447-0.011-0.789 0.171-1.095 0.546 0.602 0.529 1.265 0.921 1.912 1.32 1.688 1.037 3.335 2.132 5.195 2.886 1.421 0.575 2.883 1.149 3.908 2.407 1.493 1.832 3.358 3.294 4.998 4.98 0.623 0.639 1.344 1.131 2.112 1.586 3.688 2.178 6.92 4.863 9.288 8.484 1.23 1.878 2.371 3.801 2.609 6.104 0.037 0.342 0.277 0.286 0.488 0.289 1.965 0.034 3.931 0.049 5.897 0.104C95.032 72.908 95.058 72.736 94.996 72.358z" data-fill-palette-color="accent"></path><path fill="#000000" d="M54.489 70.436c-0.393-0.672-0.874-1.279-1.397-1.853-1.945-2.135-4.142-4.001-6.318-5.89-2.931-2.541-5.87-5.068-8.34-8.087-1.545-1.89-3-3.821-3.961-6.093-1.001-2.362-1.873-4.776-2.836-7.153-0.156-0.385-0.215-0.795-0.241-1.214-0.062-0.994-0.153-1.985-0.246-2.977-0.134-1.453 0.144-2.857 0.993-4.1 0.071-0.104 0.208-0.199 0.026-0.416-0.574 0.348-1.144 0.726-1.743 1.05-1.08 0.583-1.652 1.503-1.872 2.677-0.03 0.165-0.051 0.329-0.066 0.493-0.128 1.469 0.049 2.929 0.097 4.393 0.043 1.358 0.395 2.611 0.89 3.852 0.685 1.716 1.314 3.455 2.026 5.161 0.66 1.579 1.407 3.119 2.393 4.533 1.893 2.716 4.119 5.139 6.471 7.454 1.936 1.902 3.942 3.736 5.754 5.764 0.666 0.743 1.309 1.509 1.763 2.401 0.289 0.562 0.55 1.152 0.174 2.003 2.081 0 4.018 0 5.953 0.001 0.95 0 1.15-0.259 0.866-1.177C54.785 70.973 54.643 70.695 54.489 70.436z" data-fill-palette-color="accent"></path><path fill="#000000" d="M40.693 68.826c-1.387-1.98-3.098-3.687-4.675-5.506-1.994-2.303-3.959-4.629-5.462-7.297-1.274-2.268-2.245-4.674-3.066-7.134-0.411-1.227-0.876-2.445-1.053-3.739-0.343-2.495-0.056-4.972 0.176-7.454 0.037-0.406 0.385-0.716 0.32-1.14-0.166-0.012-0.247 0.06-0.334 0.128-1.083 0.876-1.681 2.035-1.933 3.377-0.179 0.951-0.301 1.913-0.464 2.867-0.289 1.676-0.39 3.368-0.132 5.045 0.503 3.297 1.506 6.44 2.979 9.44 1.459 2.971 3.378 5.637 5.292 8.312 0.851 1.191 1.749 2.353 2.385 3.682 0.416 0.866 0.657 1.756 0.115 2.868 2.151 0 4.144 0.002 6.136-0.001 0.671-0.001 0.8-0.138 0.822-0.815 0.013-0.397-0.084-0.771-0.237-1.13C41.331 69.796 41.027 69.302 40.693 68.826z" data-fill-palette-color="accent"></path><path fill="#000000" d="M71.833 47.306c0.773 0.395 1.508 0.218 2.203-0.185 0.762-0.442 1.548-0.875 1.81-1.83 0.466-1.7 0.935-3.4 1.426-5.094 0.089-0.305 0.037-0.512-0.14-0.758-0.295-0.412-0.622-0.656-1.172-0.582-0.407 0.056-0.831 0.044-1.242-0.001-0.492-0.055-0.721 0.117-0.894 0.597-0.66 1.84-1.381 3.659-2.062 5.49-0.255 0.684-0.573 1.315-1.215 1.831C70.98 47.077 71.441 47.107 71.833 47.306z" data-fill-palette-color="accent"></path><path fill="#000000" d="M75.627 48.175c-0.339-0.013-0.673-0.048-1.143 0.084 1.777 0.556 3.368 1.229 4.993 1.81 0.727 0.26 1.475 0.461 2.268 0.428 1.087-0.045 1.682-0.532 1.908-1.598 0.04-0.19 0.04-0.388 0.092-0.574 0.079-0.294 0.012-0.53-0.178-0.767-1.093-1.355-2.172-2.72-3.32-4.162-0.167 0.28-0.178 0.5-0.217 0.715-0.146 0.816-0.274 1.636-0.566 2.416-0.392 1.042-1.163 1.586-2.26 1.651C76.681 48.211 76.152 48.198 75.627 48.175z" data-fill-palette-color="accent"></path><path fill="#ffffff" d="M20.285 39.799c0.846-0.351 1.47-0.783 2.139-1.166C21.312 38.195 20.846 38.919 20.285 39.799z" data-fill-palette-color="accent"></path></g></svg></g></svg></g></svg></g><defs></defs></svg><rect width="395.52" height="35.39033866227864" fill="none" stroke="none" visibility="hidden"></rect></g></svg></g></svg>